<svg width="20" height="22" viewBox="0 0 20 22" fill="none" xmlns="http://www.w3.org/2000/svg">
<path d="M4.83 17.12C4 15.96 4 14.62 4 13.29C5.67 14.29 7.33 15.29 8.17 16.46L8.5 17.02V14.74C7 13.84 5.58 12.92 4.83 11.87C4 10.71 4 9.37 4 8.04C5.67 9.04 7.33 10.04 8.17 11.21L8.5 11.79V9.49C7 8.59 5.58 7.67 4.83 6.62C4 5.46 4 4.12 4 2.79C5.67 3.79 7.33 4.79 8.17 5.96C8.27 6.1 8.36 6.25 8.44 6.41C8.27 5.79 8.16 5.21 8.15 4.61C8.14 3.1 8.8 1.55 9.46 3.8147e-08C10.15 1.48 10.84 2.97 10.85 4.48C10.86 5.11 10.75 5.75 10.57 6.38C10.65 6.24 10.73 6.1 10.83 5.96C11.67 4.79 13.33 3.79 15 2.79C15 4.12 15 5.46 14.17 6.62C13.42 7.67 12 8.59 10.5 9.49V11.79L10.83 11.21C11.67 10.04 13.33 9.04 15 8.04C15 9.37 15 10.71 14.17 11.87C13.42 12.92 12 13.84 10.5 14.74V17.02L10.83 16.46C11.67 15.29 13.33 14.29 15 13.29C15 14.62 15 15.96 14.17 17.12C13.42 18.17 12 19.09 10.5 19.99V21.79H8.5V19.99C7 19.09 5.58 18.17 4.83 17.12Z" fill="#9696A0"/>
</svg>
