<svg width="20" height="20" viewBox="0 0 20 20" fill="none" xmlns="http://www.w3.org/2000/svg">
<path d="M19 1V13.5C19 14.4283 18.6313 15.3185 17.9749 15.9749C17.3185 16.6313 16.4283 17 15.5 17C14.5717 17 13.6815 16.6313 13.0251 15.9749C12.3687 15.3185 12 14.4283 12 13.5C12 12.5717 12.3687 11.6815 13.0251 11.0251C13.6815 10.3687 14.5717 10 15.5 10C16.04 10 16.55 10.12 17 10.34V4.47L7 6.6V15.5C7 16.4283 6.63125 17.3185 5.97487 17.9749C5.3185 18.6313 4.42826 19 3.5 19C2.57174 19 1.6815 18.6313 1.02513 17.9749C0.368749 17.3185 0 16.4283 0 15.5C0 14.5717 0.368749 13.6815 1.02513 13.0251C1.6815 12.3687 2.57174 12 3.5 12C4.04 12 4.55 12.12 5 12.34V4L19 1Z" fill="#9696A0"/>
</svg>
