<svg width="208" height="80" viewBox="0 0 208 80" fill="none" xmlns="http://www.w3.org/2000/svg">
<rect x="16" y="20" width="40" height="40" rx="6" fill="url(#paint0_linear_1_5023)"/>
<path d="M68.288 48.824L70.592 46.16C71.96 47.48 73.352 48.476 74.768 49.148C76.208 49.796 77.708 50.12 79.268 50.12C81.068 50.12 82.532 49.724 83.66 48.932C84.812 48.14 85.388 47.132 85.388 45.908C85.388 44.804 84.992 43.952 84.2 43.352C83.408 42.728 82.1 42.26 80.276 41.948L76.064 41.264C73.76 40.88 72.032 40.148 70.88 39.068C69.752 37.964 69.188 36.512 69.188 34.712C69.188 32.528 70.04 30.776 71.744 29.456C73.448 28.136 75.692 27.476 78.476 27.476C80.276 27.476 82.064 27.776 83.84 28.376C85.616 28.952 87.212 29.792 88.628 30.896L86.54 33.776C85.172 32.744 83.804 31.976 82.436 31.472C81.068 30.944 79.688 30.68 78.296 30.68C76.664 30.68 75.344 31.028 74.336 31.724C73.328 32.42 72.824 33.32 72.824 34.424C72.824 35.456 73.172 36.248 73.868 36.8C74.564 37.328 75.716 37.724 77.324 37.988L81.392 38.636C84.032 39.068 85.976 39.86 87.224 41.012C88.496 42.14 89.132 43.676 89.132 45.62C89.132 46.772 88.892 47.828 88.412 48.788C87.932 49.748 87.248 50.564 86.36 51.236C85.496 51.908 84.44 52.436 83.192 52.82C81.944 53.18 80.576 53.36 79.088 53.36C77.072 53.36 75.128 52.964 73.256 52.172C71.384 51.38 69.728 50.264 68.288 48.824ZM92.2021 53V27.8L95.8021 27.008V36.512C96.5221 35.792 97.3381 35.252 98.2501 34.892C99.1861 34.508 100.206 34.316 101.31 34.316C103.398 34.316 105.114 34.988 106.458 36.332C107.802 37.652 108.474 39.368 108.474 41.48V53H104.874V42.092C104.874 40.652 104.454 39.524 103.614 38.708C102.798 37.868 101.706 37.448 100.338 37.448C99.3781 37.448 98.5021 37.652 97.7101 38.06C96.9421 38.468 96.3061 39.056 95.8021 39.824V53H92.2021ZM111.8 43.82C111.8 42.5 112.04 41.264 112.52 40.112C113.024 38.936 113.708 37.928 114.572 37.088C115.436 36.224 116.444 35.552 117.596 35.072C118.772 34.568 120.02 34.316 121.34 34.316C122.66 34.316 123.896 34.568 125.048 35.072C126.224 35.552 127.232 36.224 128.072 37.088C128.936 37.928 129.608 38.936 130.088 40.112C130.592 41.264 130.844 42.5 130.844 43.82C130.844 45.164 130.592 46.424 130.088 47.6C129.608 48.752 128.936 49.76 128.072 50.624C127.232 51.464 126.224 52.136 125.048 52.64C123.896 53.12 122.66 53.36 121.34 53.36C120.02 53.36 118.772 53.12 117.596 52.64C116.444 52.136 115.436 51.464 114.572 50.624C113.708 49.76 113.024 48.752 112.52 47.6C112.04 46.424 111.8 45.164 111.8 43.82ZM121.34 50.192C122.996 50.192 124.4 49.58 125.552 48.356C126.728 47.108 127.316 45.596 127.316 43.82C127.316 42.044 126.728 40.544 125.552 39.32C124.4 38.096 122.996 37.484 121.34 37.484C119.684 37.484 118.268 38.096 117.092 39.32C115.916 40.544 115.328 42.044 115.328 43.82C115.328 45.596 115.904 47.108 117.056 48.356C118.232 49.58 119.66 50.192 121.34 50.192ZM134.249 60.452V34.676H137.813V36.44C138.557 35.768 139.409 35.264 140.369 34.928C141.329 34.568 142.349 34.388 143.429 34.388C144.725 34.388 145.937 34.64 147.065 35.144C148.193 35.624 149.165 36.284 149.981 37.124C150.821 37.964 151.481 38.96 151.961 40.112C152.441 41.264 152.681 42.5 152.681 43.82C152.681 45.14 152.441 46.388 151.961 47.564C151.481 48.716 150.821 49.712 149.981 50.552C149.165 51.392 148.181 52.064 147.029 52.568C145.877 53.048 144.653 53.288 143.357 53.288C142.349 53.288 141.365 53.132 140.405 52.82C139.469 52.508 138.617 52.064 137.849 51.488V60.452H134.249ZM142.961 37.52C141.929 37.52 140.969 37.712 140.081 38.096C139.193 38.48 138.449 39.02 137.849 39.716V47.996C138.425 48.668 139.157 49.196 140.045 49.58C140.957 49.964 141.929 50.156 142.961 50.156C144.713 50.156 146.177 49.556 147.353 48.356C148.553 47.156 149.153 45.656 149.153 43.856C149.153 42.056 148.553 40.556 147.353 39.356C146.153 38.132 144.689 37.52 142.961 37.52ZM156.116 53V27.8L159.716 27.008V42.74L168.608 34.676H172.82L163.388 43.28L173.324 53H168.572L159.716 44.36V53H156.116ZM180.088 53.324C178.096 53.324 176.476 52.808 175.228 51.776C173.98 50.744 173.356 49.4 173.356 47.744C173.356 46.016 174.016 44.66 175.336 43.676C176.656 42.668 178.468 42.164 180.772 42.164C181.66 42.164 182.524 42.26 183.364 42.452C184.204 42.62 185.008 42.86 185.776 43.172V41.228C185.776 39.932 185.392 38.96 184.624 38.312C183.856 37.664 182.752 37.34 181.312 37.34C180.472 37.34 179.596 37.472 178.684 37.736C177.772 37.976 176.752 38.36 175.624 38.888L174.292 36.188C175.66 35.54 176.956 35.072 178.18 34.784C179.404 34.472 180.616 34.316 181.816 34.316C184.192 34.316 186.028 34.892 187.324 36.044C188.644 37.172 189.304 38.78 189.304 40.868V53H185.776V51.416C184.96 52.064 184.084 52.544 183.148 52.856C182.212 53.168 181.192 53.324 180.088 53.324ZM176.812 47.672C176.812 48.56 177.184 49.28 177.928 49.832C178.696 50.384 179.692 50.66 180.916 50.66C181.876 50.66 182.764 50.516 183.58 50.228C184.396 49.94 185.128 49.508 185.776 48.932V45.764C185.08 45.38 184.348 45.104 183.58 44.936C182.812 44.744 181.972 44.648 181.06 44.648C179.764 44.648 178.732 44.924 177.964 45.476C177.196 46.028 176.812 46.76 176.812 47.672Z" fill="#0C2146"/>
<path d="M25.9866 47.448L28.6426 44.12C29.944 45.2507 31.192 46.0827 32.3866 46.616C33.6026 47.128 34.8826 47.384 36.2266 47.384C37.6133 47.384 38.7226 47.128 39.5546 46.616C40.3866 46.104 40.8026 45.4213 40.8026 44.568C40.8026 43.8 40.5146 43.2027 39.9386 42.776C39.384 42.3493 38.4453 42.0293 37.1226 41.816L32.6746 41.048C30.7546 40.728 29.2933 40.056 28.2906 39.032C27.3093 38.008 26.8186 36.6853 26.8186 35.064C26.8186 32.9733 27.608 31.32 29.1866 30.104C30.7866 28.888 32.9413 28.28 35.6506 28.28C37.272 28.28 38.904 28.5573 40.5466 29.112C42.2106 29.6667 43.6613 30.4347 44.8986 31.416L42.4026 34.872C41.208 33.9547 40.0346 33.2827 38.8826 32.856C37.7306 32.408 36.5466 32.184 35.3306 32.184C34.0933 32.184 33.1013 32.4187 32.3546 32.888C31.608 33.336 31.2346 33.944 31.2346 34.712C31.2346 35.3947 31.48 35.928 31.9706 36.312C32.4613 36.696 33.2826 36.9733 34.4346 37.144L38.6586 37.848C40.8773 38.2107 42.5413 38.9253 43.6506 39.992C44.7813 41.0373 45.3466 42.424 45.3466 44.152C45.3466 46.328 44.4826 48.0667 42.7546 49.368C41.048 50.6693 38.7653 51.32 35.9066 51.32C34.1146 51.32 32.344 50.9787 30.5946 50.296C28.8666 49.6133 27.3306 48.664 25.9866 47.448Z" fill="white"/>
<defs>
<linearGradient id="paint0_linear_1_5023" x1="16" y1="40" x2="56" y2="40" gradientUnits="userSpaceOnUse">
<stop stop-color="#2979FF"/>
<stop offset="1" stop-color="#4C589E"/>
</linearGradient>
</defs>
</svg>
