<svg width="20" height="20" viewBox="0 0 20 20" fill="none" xmlns="http://www.w3.org/2000/svg">
<path d="M6 12C6 12.7956 5.68393 13.5587 5.12132 14.1213C4.55871 14.6839 3.79565 15 3 15C2.20435 15 1.44129 14.6839 0.87868 14.1213C0.316071 13.5587 0 12.7956 0 12C0 11.23 0.29 10.53 0.76 10C0.29 9.47 0 8.77 0 8C0 7.20435 0.316071 6.44129 0.87868 5.87868C1.44129 5.31607 2.20435 5 3 5C3.79565 5 4.55871 5.31607 5.12132 5.87868C5.68393 6.44129 6 7.20435 6 8C7.33 8.08 8.67 8.17 10 8.17C11.33 8.17 12.67 8.08 14 8C14 7.20435 14.3161 6.44129 14.8787 5.87868C15.4413 5.31607 16.2044 5 17 5C17.7956 5 18.5587 5.31607 19.1213 5.87868C19.6839 6.44129 20 7.20435 20 8C20 8.77 19.71 9.47 19.24 10C19.71 10.53 20 11.23 20 12C20 12.7956 19.6839 13.5587 19.1213 14.1213C18.5587 14.6839 17.7956 15 17 15C16.2044 15 15.4413 14.6839 14.8787 14.1213C14.3161 13.5587 14 12.7956 14 12C12.67 11.92 11.33 11.83 10 11.83C8.67 11.83 7.33 11.92 6 12Z" fill="#9696A0"/>
</svg>
