<svg width="72" height="16" viewBox="0 0 72 16" fill="none" xmlns="http://www.w3.org/2000/svg">
<path d="M8.00004 11.3107L11.42 13.3359L10.5124 9.51887L13.5339 6.95062L9.55505 6.61398L8.00004 3.01953L6.44503 6.61398L2.46619 6.95062L5.48214 9.51887L4.58012 13.3359L8.00004 11.3107Z" fill="#FB8200"/>
<path d="M22 11.3107L25.42 13.3359L24.5124 9.51887L27.5339 6.95062L23.5551 6.61398L22 3.01953L20.445 6.61398L16.4662 6.95062L19.4821 9.51887L18.5801 13.3359L22 11.3107Z" fill="#FB8200"/>
<path d="M36 11.3107L39.42 13.3359L38.5124 9.51887L41.5339 6.95062L37.5551 6.61398L36 3.01953L34.445 6.61398L30.4662 6.95062L33.4821 9.51887L32.5801 13.3359L36 11.3107Z" fill="#FB8200"/>
<path d="M50 11.3107L53.42 13.3359L52.5124 9.51887L55.5339 6.95062L51.5551 6.61398L50 3.01953L48.445 6.61398L44.4662 6.95062L47.4821 9.51887L46.5801 13.3359L50 11.3107Z" fill="#FB8200"/>
<path d="M64 10.2718V4.85442L64.9463 7.20194L67.3702 7.41747L65.5329 9.10093L66.0808 11.5941L64 10.2718ZM69.5339 6.68351L65.5551 6.32817L64 2.46613L62.445 6.32817L58.4662 6.68351L61.4821 9.43878L60.5801 13.5338L64 11.3611L67.42 13.5338L66.5124 9.43878L69.5339 6.68351Z" fill="#FB8200"/>
</svg>
